<?xml version="1.0" encoding="UTF-8"?>
<!DOCTYPE svg PUBLIC "-//W3C//DTD SVG 1.1//EN" "http://www.w3.org/Graphics/SVG/1.1/DTD/svg11.dtd">
<!-- Creator: CorelDRAW 2018 (64 Bit Versão de avaliação) -->
<svg xmlns="http://www.w3.org/2000/svg" xml:space="preserve" width="81.7639mm" height="33.4787mm" version="1.1" style="shape-rendering:geometricPrecision; text-rendering:geometricPrecision; image-rendering:optimizeQuality; fill-rule:evenodd; clip-rule:evenodd"
viewBox="0 0 6328.44 2591.21"
 xmlns:xlink="http://www.w3.org/1999/xlink">
 <defs>
  <style type="text/css">
   <![CDATA[
    .str0 {stroke:#373435;stroke-width:15.48;stroke-miterlimit:22.9256}
    .fil5 {fill:none}
    .fil20 {fill:#E7E8E8}
    .fil13 {fill:#373435}
    .fil17 {fill:#34A853}
    .fil4 {fill:#3D64A6}
    .fil6 {fill:#3D64A6}
    .fil2 {fill:#4285F4}
    .fil12 {fill:#871518}
    .fil10 {fill:#897A3E}
    .fil14 {fill:#8A7B40}
    .fil11 {fill:#AD192A}
    .fil18 {fill:#B04E65}
    .fil19 {fill:#B04E65}
    .fil16 {fill:#BAA644}
    .fil9 {fill:#D2BD62}
    .fil8 {fill:#D3BF5E}
    .fil7 {fill:#D4C05F}
    .fil0 {fill:#EA4335}
    .fil15 {fill:#EBD14A}
    .fil3 {fill:#EE5B7D}
    .fil1 {fill:#FBBC05}
   ]]>
  </style>
 </defs>
 <g id="Camada_x0020_1">
  <metadata id="CorelCorpID_0Corel-Layer"/>
  <g id="_2098654845696">
   <path class="fil0" d="M3066.44 1730.1c0,261.51 -204.58,454.22 -455.65,454.22 -251.07,0 -455.65,-192.7 -455.65,-454.22 0,-263.35 204.58,-454.22 455.65,-454.22 251.07,0 455.65,190.86 455.65,454.22zm-199.46 0c0,-163.42 -118.57,-275.23 -256.18,-275.23 -137.62,0 -256.18,111.81 -256.18,275.23 0,161.78 118.57,275.23 256.18,275.23 137.62,0 256.18,-113.65 256.18,-275.23z"/>
   <path class="fil1" d="M4049.4 1730.1c0,261.51 -204.58,454.22 -455.65,454.22 -251.07,0 -455.65,-192.7 -455.65,-454.22 0,-263.15 204.58,-454.22 455.65,-454.22 251.07,0 455.65,190.86 455.65,454.22zm-199.46 0c0,-163.42 -118.57,-275.23 -256.18,-275.23 -137.62,0 -256.18,111.81 -256.18,275.23 0,161.78 118.57,275.23 256.18,275.23 137.62,0 256.18,-113.65 256.18,-275.23z"/>
   <path class="fil2" d="M4991.41 1303.33l0 815.45c0,335.44 -197.82,472.44 -431.68,472.44 -220.15,0 -352.64,-147.24 -402.61,-267.65l173.66 -72.29c30.92,73.92 106.69,161.17 228.74,161.17 149.7,0 242.47,-92.36 242.47,-266.22l0 -65.32 -6.97 0c-44.64,55.08 -130.65,103.21 -239.19,103.21 -227.1,0 -435.17,-197.82 -435.17,-452.37 0,-256.39 208.06,-455.85 435.17,-455.85 108.33,0 194.34,48.13 239.19,101.57l6.96 0 0 -73.92 189.43 -0.01 0 -0.2zm-175.29 428.41c0,-159.94 -106.69,-276.87 -242.47,-276.87 -137.62,0 -252.91,116.93 -252.91,276.87 0,158.3 115.29,273.59 252.91,273.59 135.77,0 242.47,-115.29 242.47,-273.59z"/>
   <path class="fil3" d="M6061.82 1879.59l154.82 103.21c-49.97,73.92 -170.38,201.31 -378.44,201.31 -258.03,0 -450.73,-199.46 -450.73,-454.22 0,-270.11 194.34,-454.22 428.41,-454.22 235.71,0 351,187.58 388.68,288.95l20.68 51.61 -607.19 251.48c46.49,91.13 118.78,137.62 220.15,137.62 101.57,0 172.02,-49.97 223.63,-125.73l-0.01 -0.01zm-476.54 -163.42l405.88 -168.54c-22.32,-56.73 -89.49,-96.25 -168.54,-96.25 -101.37,0 -242.47,89.49 -237.34,264.79l0 -0.01z"/>
   <path class="fil2" d="M1418.74 1611.94l0 -192.71 649.37 0c6.35,33.58 9.63,73.31 9.63,116.32 0,144.58 -39.52,323.36 -166.9,450.73 -123.89,129.02 -282.2,197.82 -491.89,197.82 -388.67,0 -715.51,-316.59 -715.51,-705.27 0,-388.68 326.84,-705.28 715.52,-705.28 215.02,0 368.2,84.37 483.29,194.34l-135.97 135.97c-82.53,-77.41 -194.34,-137.62 -347.52,-137.62 -283.83,0 -505.82,228.74 -505.82,512.57 0,283.83 221.99,512.57 505.82,512.57 184.1,0 288.95,-73.92 356.12,-141.1 54.47,-54.47 90.31,-132.29 104.44,-238.57l-460.56 0.2 -0.01 0.02z"/>
   <path class="fil4" d="M710.33 1381.52l243.46 -106.7c0,0 28.35,-59.67 43.12,-81.04 14.77,-21.37 -83.28,-10.91 -83.28,-10.91l-160.42 64 -28.16 34.98 -13.76 16.32 15.18 4.3 -16.13 79.06z"/>
   <g>
    <path class="fil5 str0" d="M3306.64 2245.06c0,0 302.57,190.86 566.79,-24.37"/>
    <line class="fil5 str0" x1="3404.73" y1="2230.69" x2="3386.6" y2= "2347.25" />
    <line class="fil5 str0" x1="3557.51" y1="2269.41" x2="3545.85" y2= "2381.93" />
    <line class="fil5 str0" x1="3712.45" y1="2258.21" x2="3730.88" y2= "2362.74" />
   </g>
   <polygon class="fil6" points="1536.07,979.03 1739.62,849.48 1690.6,826.27 1461.48,961.87 1474.88,967.7 "/>
   <g>
    <path class="fil7" d="M441.75 1006.88l-104.22 66.48 -73.82 54.83c-30.74,23.27 -361.2,261.89 -224.07,293.24 318.19,72.75 925.2,-204.28 1196.13,-337.97l289.98 -149.56 210.76 -130.13c108.2,-89.1 413.43,-308.02 402.69,-425.48 -0.53,-5.76 59.42,-94.83 -134.2,-68.2 -86.33,11.88 -332.41,64.41 -402.85,110.65l-16.16 -32.92c-24.88,-50.69 -38.04,-25.86 -49.56,-46.49 -217.99,-390.52 -619.39,-443.09 -1011.02,-120.97 -71.89,84.89 -121.35,175.53 -157.85,269.47 -24.58,64.08 -27.41,127.68 -16.51,190.97l39.04 150.55 69.24 152.08 -17.61 23.44z"/>
    <g>
     <path class="fil8" d="M439.99 347.06c-7.5,16.73 -23.48,43.41 -33.78,67.07 -36.04,82.71 -61.05,137.1 -55.27,225.53 5.09,77.7 57.72,289.16 127.17,361.41 20.73,-3.6 33.46,-10.55 53.41,-19.88 16.52,-7.72 37.11,-14.65 59.06,-24.5 155.69,-69.91 183.7,-80.38 343.68,-172.5 154.47,-88.94 294.28,-176.18 428.53,-273.29l56.91 -46.06c-10.19,-10.46 -29.5,-13.96 -27.48,-43.9l21.73 25.31c-63.19,-171.83 -210.59,-332.54 -370.09,-413.08 -30.35,-15.32 -25.45,-20.46 -61.52,-16.08 -108.95,13.24 -219.1,50.93 -316.45,112.91 -198.36,126.3 -170.13,177.54 -225.9,217.06z"/>
     <path class="fil9" d="M1158.57 884.6c-103.37,66.32 -301.54,173.5 -415.79,209.85 -44.14,14.04 -158.19,62.27 -195.49,61.56 -39.93,-0.76 -42.64,-27.41 -54.37,-64.83 -12.68,-40.42 -42.52,-43.89 -46.09,-90.52l-38.23 25.85 32.1 -15.08c-30.59,23.46 -509.95,342.68 -412.64,399.83 55.37,32.52 206.46,19.43 263.2,5.36 133.14,-33 142.07,-29.67 288.15,-73.17 228.89,-68.16 702.79,-294.39 929.09,-427.72 62.03,-36.55 218.15,-148.27 212.58,-208.78 -33.05,-10.72 -234.15,69.57 -280.53,86.22 -38.57,13.85 -261.9,93.61 -281.98,91.42z"/>
     <path class="fil10" d="M1593.57 393.69c-7.23,27.41 37.65,76 50.85,103.89 -52.87,117.42 -353,305.12 -485.86,387.02 20.08,2.19 243.41,-77.57 281.98,-91.42 46.39,-16.66 247.48,-96.94 280.53,-86.22 5.56,60.51 -150.56,172.23 -212.58,208.78 -226.3,133.34 -700.2,359.56 -929.09,427.72 -146.07,43.5 -155.01,40.16 -288.15,73.17 -56.74,14.07 -207.83,27.16 -263.2,-5.36 -97.31,-57.14 382.05,-376.37 412.64,-399.83l-32.1 15.08c-66.25,33.15 -185.73,125.39 -245.1,174 -57.27,46.9 -165.96,141.98 -163.45,199.51 19.22,28.54 47.14,30.78 71.77,35.22 191.28,34.54 446.13,-50.37 626.34,-114.57 268.26,-95.57 525.14,-216.79 780.26,-352.22 87.41,-46.4 296.15,-165.84 353.46,-233.65 59.54,-70.45 37.89,-40.6 74.74,-60.08 19.76,-10.44 54.57,-47.19 74.54,-64.91 54.4,-48.23 90.61,-73.64 123.87,-133.1 81.42,-145.62 72.95,-213.37 -128.58,-164.94 -77.88,18.72 -311.17,72.17 -370,110.13l-12.88 -28.23z"/>
     <path class="fil11" d="M458.76 1015.4c20.68,34.51 36.76,42.94 48.62,84.36 9.06,31.65 22.61,46.73 51.95,42.9 41.8,-5.44 121.22,-41.14 164.7,-54.64 169.54,-52.69 515.95,-258.56 661.57,-366.93 47.79,-35.57 124.91,-78.85 120.57,-111.88 -2.98,-22.71 -12.47,-64.38 -29.41,-79.57l-57.95 -42.89c-40.36,17.93 -73.75,52.08 -104.02,76.87 -28.74,23.53 -82.79,58.03 -115.1,77.15 -81.48,48.21 -163.12,97.89 -244.66,145.69 -180.89,106.03 -216.33,110.46 -373.97,186.97 -75.59,36.69 -61.01,25.46 -122.3,41.97z"/>
     <path class="fil10" d="M439.99 347.06c55.77,-39.52 27.54,-90.76 225.9,-217.06 97.35,-61.98 207.51,-99.67 316.45,-112.91 36.08,-4.38 31.18,0.76 61.52,16.08 159.5,80.54 306.9,241.24 370.09,413.08l-21.73 -25.31c-2.02,29.94 17.28,33.44 27.48,43.9 26.14,-19.85 102.79,-76.52 114.24,-107.99l-42.38 -83.63c-103.12,-168.56 -305.03,-297.81 -502.81,-269.26 -80.53,11.62 -258.16,59.89 -326.57,111.92 -112.14,85.28 -114.18,56.97 -208.32,194.04 -3.48,5.07 -7.64,10.39 -9.33,14.17 -11.74,26.24 -4.97,2.86 -4.54,22.96z"/>
     <path class="fil12" d="M458.76 1015.4c61.29,-16.5 46.71,-5.27 122.3,-41.97 157.64,-76.51 193.08,-80.94 373.97,-186.97 81.54,-47.79 163.18,-97.48 244.66,-145.69 32.31,-19.12 86.36,-53.62 115.1,-77.15 30.27,-24.79 63.67,-58.94 104.02,-76.87l57.95 42.89c16.94,15.19 26.43,56.86 29.41,79.57 4.33,33.03 -72.78,76.31 -120.57,111.88 -145.62,108.37 -492.02,314.25 -661.57,366.93 -43.47,13.51 -122.9,49.2 -164.7,54.64 -29.34,3.82 -42.89,-11.25 -51.95,-42.9 -11.87,-41.42 -27.94,-49.84 -48.62,-84.36zm-11.93 -14.74c3.58,46.63 33.41,50.1 46.09,90.52 11.73,37.42 14.44,64.07 54.37,64.83 37.3,0.71 151.35,-47.52 195.49,-61.56 114.26,-36.35 312.43,-143.54 415.79,-209.85 132.86,-81.9 432.98,-269.6 485.86,-387.02 -13.2,-27.89 -58.08,-76.48 -50.85,-103.89 -31.36,-57.66 -33.75,-27.45 -57.38,-48.51 -9.21,-8.22 -36.68,-57.87 -44.64,-71.94l42.38 83.63c-11.46,31.47 -88.1,88.14 -114.24,107.99l-56.91 46.06c-134.26,97.11 -274.07,184.35 -428.53,273.29 -159.98,92.12 -187.99,102.58 -343.68,172.5 -21.94,9.85 -42.53,16.78 -59.06,24.5 -19.95,9.33 -32.69,16.28 -53.41,19.88 -69.45,-72.25 -122.08,-283.71 -127.17,-361.41 -5.78,-88.44 19.23,-142.82 55.27,-225.53 10.31,-23.66 26.28,-50.34 33.78,-67.07 -19.76,14.76 -59.03,110.25 -67.79,133.65 -65.72,175.48 -3.78,332.94 84.47,507.88l-9.84 12.07z"/>
    </g>
   </g>
   <circle class="fil13" cx="3593.76" cy="1730.1" r="42.19"/>
   <circle class="fil13" cx="2610.79" cy="1730.1" r="42.19"/>
   <path class="fil5 str0" d="M3367.99 1863.1c0,0 181.01,302.22 430.61,34.81"/>
   <path class="fil5 str0" d="M3400.75 1546.05c0,0 90.08,-98.46 195.18,-93.78 128.09,5.7 252.79,78.12 251,321.61"/>
   <path class="fil5 str0" d="M2838.48 1864.28c0,0 -181.01,302.22 -430.61,34.81"/>
   <path class="fil5 str0" d="M2805.72 1547.23c0,0 -90.08,-98.46 -195.18,-93.78 -128.09,5.7 -252.79,78.12 -251,321.61"/>
   <path class="fil5 str0" d="M3294.08 1254.44c0,0 224.6,-207.61 573.39,-117.06"/>
   <path class="fil5 str0" d="M2965.86 1285.97c0,0 -224.6,-207.61 -573.39,-117.06"/>
   <g>
    <path class="fil14" d="M4933.42 2551.43c0,0 0.12,-27.41 -0.11,-45.1 -0.23,-17.69 5.74,-54.81 5.74,-54.81l61.86 -28.16 18.34 102.4 45.66 -37.12 48.21 6.4 34.13 42.24c0,0 -65.46,-34.56 -101.42,4.06l-99.96 15.15 -12.46 -5.05z"/>
    <path class="fil15" d="M4203.64 1968.52c0,0 514.17,123.8 787.77,0l-4.29 206.75c0,0 -490.07,113.16 -766.53,-64.33l-20.7 -127.14 3.75 -15.28z"/>
    <path class="fil14" d="M4219.09 2101.68c0,0 159.65,105.96 221.74,60.47 62.09,-45.49 285.23,20.84 156.18,-15.95 0,0 15.36,-30.73 -152.73,-21.34 0,0 -157,-11.94 -202.23,-40.1 -45.22,-28.16 -6.61,-42.41 -34.02,-51.07l8.48 52.12 2.59 15.87z"/>
    <path class="fil14" d="M4843.35 2057.92c0,0 -69.3,23.71 -111.94,20.85 -42.64,-2.86 -63.87,-2.15 -73.14,1.41 0,0 -7.53,-15.36 74.8,-10.67 0,0 76.89,-5.97 99.04,-20.05 22.15,-14.08 3.24,-21.21 16.66,-25.53l-4.16 26.06 -1.26 7.93z"/>
    <path class="fil14" d="M4955.57 2097.32c0,0 -62.48,41.42 -105.12,38.56 -42.64,-2.86 -46.8,-25.62 -79.97,-16.3 0,0 -7.53,-15.36 74.8,-10.67 0,0 76.89,-5.97 99.04,-20.05 22.15,-14.08 3.24,-21.21 16.66,-25.53l-4.16 26.06 -1.26 7.93z"/>
    <path class="fil16" d="M4804.99 2022.75c2.91,2.28 6,-3.97 9.37,3.9 3.37,7.87 12.41,68.21 12.41,68.21 0,0 12.88,81.56 22.89,91.58 10.02,10.02 20.03,141.19 18.13,159.79 -1.91,18.6 -21.48,211.3 -29.1,228.47 -7.63,17.17 96.35,-101.12 137.37,-69.64 41.02,31.48 -56.28,25.76 -41.02,52.48 15.26,26.71 110.66,-9.54 122.1,-24.81 11.45,-15.26 45.8,-41.97 82.04,1.91 36.25,43.88 -20.99,-110.66 -66.78,-164.09 -45.79,-53.42 -45.79,-118.29 -45.79,-188.88 0,-70.6 -19.58,-86.15 -34.34,-131.65 -15.75,-48.58 -36.08,-67.34 -60.35,-66.56 -7.97,0.26 -15.63,6.45 -24.69,9.34 -11.38,3.65 -24.18,3 -37.17,9.03 -24.24,11.27 -29.16,-0.73 -40.85,6.43 -8.34,5.1 -22.78,-5 -24.22,14.47z"/>
    <path class="fil14" d="M5007.37 2557.88c0,0 -8.11,-19.04 0.22,-34.89 8.34,-15.85 -9.65,-57.61 -17.31,-74.45 -7.65,-16.84 -15.36,-54.6 -15.36,-74.23 0,-19.63 13.65,-78.51 13.65,-78.51 0,0 2.94,35.92 8.92,63.34 3.6,16.49 6.47,42.45 6.87,45.46 8.41,63.43 31.25,61.42 39.25,117.33l2.23 19.42c-11.98,6.6 -24.86,12.07 -38.47,16.54z"/>
    <path class="fil14" d="M4852.76 2193.18c0,0 17.12,-42.23 44.43,120.75 0,0 -26.03,75.52 -23.47,101.97 2.56,26.45 -14.75,13.39 -14.75,13.39l6.85 -63.92 1.59 -45.91 -4.74 -61.63 -9.91 -64.65z"/>
   </g>
   <polygon class="fil17" points="5303.71,825.36 5303.71,2156.46 5109.16,2156.46 5109.16,825.36 "/>
   <path class="fil18" d="M6000.27 1377.02c0,0 -382.86,-68.03 -314.45,-81.45 68.41,-13.41 65.25,-16.46 87.36,-10.79l229.67 58.94 -2.58 33.3z"/>
   <path class="fil19" d="M5404.24 1856.89c0,0 95.03,-96.83 120.63,-105.36 25.6,-8.53 58.28,-32.52 60.71,-61.01 2.43,-28.49 23.58,-92.32 14.81,-89.17l-227.4 81.92 21 126.72 10.25 46.9z"/>
   <path class="fil20" d="M5992.46 1117c-44.59,-16.87 -68.06,-17.98 -127.09,-3.14 44.95,54.77 73.83,66.55 126.25,102.03 24.75,16.76 37.19,28.15 63.37,38.96 162.49,67.07 208.87,46.74 179.43,260.95 -20.61,149.99 206.68,127.35 19.7,417.37 -40.74,63.18 -33.47,64.38 -116.71,103.92 4.54,-34.09 67.4,-101.06 21.96,-180.61 -18.26,-31.97 -95.04,-116.57 -136.35,-158.8l183.94 -73.33 -0.8 -1.08c12.03,9.47 24.34,20.91 37.07,34.8 -25.15,-56.86 -63.45,-156.29 -110.8,-197.07 -25.31,-21.81 -55.63,-28.25 -82.45,-45.48 -15.71,-10.1 -64.49,-51.94 -74.64,-56.5 -6.04,-2.72 -80.95,-11.59 -92.44,-13.65l-175.94 -55.29c-24.22,-11.5 -58.05,-31.52 -79.8,-36.11 -83.1,75.43 -70,-2 -232.63,81.02 -6.79,22.38 -11.8,69.43 -1.8,102.16 -35.5,5.12 -69.69,-6.73 -89.94,-2.54 -18.92,3.92 -74.4,35.63 -83.56,53.94 79.9,16.6 70.6,-11.73 119.75,26.42 -72.46,23.17 -112.82,24.8 -112.55,93.54 0.18,45.11 -29.54,81.31 -89.33,108.36 -13.75,-40.15 -43.33,-102.79 -45.22,-140.42 -1.52,-30.43 1.89,-13.55 7.88,-32.65 23.75,-75.67 -129.95,-200.16 24.99,-342.14 1.77,50.85 -47.28,127.44 2.31,190.93 -0.81,-7.42 9.21,-32.66 11.66,-46.36 22.44,-125.39 -8.14,-74.27 73.19,-130.84 39.63,-27.56 56.29,-49.44 67.69,-81.78 14.74,-41.82 27.35,-48.78 75.98,-80.46 218.6,-142.38 285.69,-154.73 413.06,43.73 92.04,-42.66 162.19,-40.1 223.79,20.11zm-171.79 499.1c-44.21,-8.44 -65.47,16.04 -120.08,55.08 -29.9,-14.69 -48.24,-35.56 -77.24,-40.18 -43.01,-6.85 -55.52,-6.77 -61.5,31.82 -53.95,19.35 -101.66,23.11 -145.73,65.63 -32.18,31.04 -44.47,67.11 -82.76,97.29 -31.28,-71.83 -8.58,-137.27 19.83,-187.2 62.4,-109.71 119.22,-109.82 129.05,-150.3 5.53,-22.79 -13.84,-16.85 1.42,-45.99 20.53,-39.2 74.86,-85.87 126.74,-99.26 60.56,-15.61 141.04,9 180.14,58 -45.16,-1.61 -89.1,-15.89 -146.1,13.4 -60.39,31.03 -56.35,74.59 -21.1,127.37 289.1,-132.4 124.86,-19.64 323.47,24.33l-126.14 50.02z"/>
  </g>
 </g>
</svg>
